<?xml version="1.0" encoding="UTF-8" standalone="no"?>
<svg
   xmlns:dc="http://purl.org/dc/elements/1.1/"
   xmlns:cc="http://creativecommons.org/ns#"
   xmlns:rdf="http://www.w3.org/1999/02/22-rdf-syntax-ns#"
   xmlns:svg="http://www.w3.org/2000/svg"
   xmlns="http://www.w3.org/2000/svg"
   xmlns:sodipodi="http://sodipodi.sourceforge.net/DTD/sodipodi-0.dtd"
   xmlns:inkscape="http://www.inkscape.org/namespaces/inkscape"
   width="50mm"
   height="50mm"
   viewBox="0 0 50 50"
   version="1.1"
   id="svg8"
   inkscape:version="0.92.5 (2060ec1f9f, 2020-04-08)"
   sodipodi:docname="youtubelogo.svg">
  <defs
     id="defs2" />
  <sodipodi:namedview
     id="base"
     pagecolor="#ffffff"
     bordercolor="#666666"
     borderopacity="1.0"
     inkscape:pageopacity="0.0"
     inkscape:pageshadow="2"
     inkscape:zoom="0.35"
     inkscape:cx="296.1902"
     inkscape:cy="16.454908"
     inkscape:document-units="mm"
     inkscape:current-layer="layer1"
     inkscape:document-rotation="0"
     showgrid="false"
     inkscape:window-width="1848"
     inkscape:window-height="1043"
     inkscape:window-x="72"
     inkscape:window-y="0"
     inkscape:window-maximized="1" />
  <metadata
     id="metadata5">
    <rdf:RDF>
      <cc:Work
         rdf:about="">
        <dc:format>image/svg+xml</dc:format>
        <dc:type
           rdf:resource="http://purl.org/dc/dcmitype/StillImage" />
        <dc:title></dc:title>
      </cc:Work>
    </rdf:RDF>
  </metadata>
  <g
     inkscape:label="Layer 1"
     inkscape:groupmode="layer"
     id="layer1">
    <rect
       style="fill:#000000;stroke:#000000;stroke-width:1.43622"
       id="rect863"
       width="48.793159"
       height="48.793159"
       x="0.75144833"
       y="0.69083565"
       rx="6.6066232" />
    <path
       style="opacity:1;fill:#ffffff;fill-opacity:1;stroke:#ffffff;stroke-width:0.30837426;stroke-opacity:1"
       d="m 18.089934,37.611531 c -1.226571,-0.04651 -2.964456,-0.14158 -3.861955,-0.21119 C 10.837322,37.137363 9.9732759,36.88811 8.8852571,35.859104 7.9231411,34.949174 7.6018634,34.140944 7.2719569,31.800656 6.6199821,27.175697 6.8208742,18.996831 7.6567217,16.135243 7.9279018,15.206822 8.4434662,14.395126 9.1076572,13.850862 10.53649,12.680045 13.037376,12.400687 22.930983,12.306748 c 7.943241,-0.07542 13.298527,0.120029 15.719808,0.573721 1.677595,0.31434 3.053082,1.356952 3.56908,2.705334 0.754993,1.972911 1.08552,7.7084 0.784687,13.616089 -0.205363,4.032721 -0.658656,5.62812 -1.928992,6.789128 -1.203925,1.10032 -2.845712,1.390023 -9.224,1.627644 -3.317691,0.123605 -10.413549,0.119924 -13.761632,-0.0076 z m 6.405943,-8.880336 c 3.297024,-1.865686 5.856041,-3.352472 6.159024,-3.578403 0.215132,-0.160412 0.214511,-0.164567 -0.05441,-0.368713 -0.149588,-0.113561 -1.618214,-0.976731 -3.263623,-1.918157 -1.64541,-0.941426 -3.694907,-2.11888 -4.55443,-2.616564 -0.859506,-0.497684 -1.581591,-0.90488 -1.604603,-0.90488 -0.07133,0 -0.04412,9.919843 0.0289,10.52763 0.06121,0.510042 0.09292,0.565944 0.285691,0.504753 0.119238,-0.03785 1.470778,-0.778396 3.00341,-1.645666 z"
       id="path882"
       inkscape:connector-curvature="0" />
  </g>
</svg>
